<svg xmlns="http://www.w3.org/2000/svg" width="70" height="70" viewBox="0 0 70 70" style="width: 100%; height: 100%;"><desc>Made with illustrio</desc>
  
<g class="base"><g fill="none" fill-rule="evenodd" stroke="none" class="main-fill">
    
    
    <path fill="none" d="M22.6470588,0.149132941 C17.5217115,0.149132941 11.6908915,2.50969765 7.02573529,7.17486824 C3.93009441,10.2705174 1.87277382,13.8700141 0.823529412,17.4432506 C0.288518588,19.2604918 0,21.0713918 0,22.7961918 C0,26.1091271 1.14879347,29.1177476 3.38419118,31.3531771 C5.61255635,33.5815241 8.62412229,34.7373682 11.9411765,34.7373682 C17.0665238,34.7373682 22.8973438,32.3768035 27.5625,27.7116329 C30.6581409,24.6159859 32.7154615,21.0165035 33.7647059,17.4432506 C34.2997167,15.6260168 34.5882353,13.8151069 34.5882353,12.0903094 C34.5882353,8.77738647 33.4394418,5.76872471 31.2040441,3.53332412 C28.9756789,1.30495647 25.964113,0.149132941 22.6470588,0.149132941 Z M26.3529412,5.91383882 C26.7424031,5.91383882 27.1775,6.27009353 27.1764706,6.73736824 C27.1674311,10.8624229 26.0394919,13.5670376 24.1911765,15.2943535 C22.3428611,17.0216859 19.9073877,17.7258859 17.4613971,18.2410447 C15.1055738,18.73718 13.0100542,19.4051447 11.5294118,20.7888388 C10.0487693,22.1725329 9.05329765,24.3178271 9.05882353,28.1491329 C9.05945106,28.5842447 8.62226729,28.9726624 8.23529412,28.9726624 C7.84832094,28.9726624 7.41118824,28.5842447 7.41176471,28.1491329 C7.41732971,24.0240741 8.548743,21.3065918 10.3970588,19.57928 C12.2453746,17.8519682 14.6808476,17.1477476 17.1268382,16.6325888 C19.4826615,16.1364535 21.5781806,15.4685094 23.0588235,14.0847947 C24.5394664,12.70108 25.5373259,10.5686741 25.5294118,6.73736824 C25.5285709,6.33026882 25.9634793,5.91383882 26.3529412,5.91383882 Z" transform="translate(17.706 17.557)" stroke="none" class="main-fill"></path>
  </g></g><style>
          .main-fill {fill: #324958;}
          .main-stroke {stroke: #324958;}
          .secondary-fill {fill: #fff;}
          .secondary-stroke {stroke: #fff;}

          .main-fill--darken {fill: #162127;}
          .main-stroke--darken {stroke: #162127;}
          .secondary-fill--darken {fill: #d9d9d9;}
          .secondary-stroke--darken {stroke: #d9d9d9;}

          .main-fill--darkener {fill: #040607;}
          .main-stroke--darkener {stroke: #040607;}
          .secondary-fill--darkener {fill: #bfbfbf;}
          .secondary-stroke--darkener {stroke: #bfbfbf;}
        </style></svg>